<mxfile host="app.diagrams.net" modified="2024-05-16T21:21:55.687Z" agent="Mozilla/5.0 (Windows NT 10.0; Win64; x64) AppleWebKit/537.36 (KHTML, like Gecko) Chrome/124.0.0.0 Safari/537.36 Edg/124.0.0.0" etag="Ej8bZZUju4ymDTtUexmB" version="24.4.3" type="github">
  <diagram id="C5RBs43oDa-KdzZeNtuy" name="Page-1">
    <mxGraphModel dx="2048" dy="620" grid="1" gridSize="10" guides="1" tooltips="1" connect="1" arrows="1" fold="1" page="1" pageScale="1" pageWidth="827" pageHeight="1169" math="0" shadow="0">
      <root>
        <mxCell id="WIyWlLk6GJQsqaUBKTNV-0" />
        <mxCell id="WIyWlLk6GJQsqaUBKTNV-1" parent="WIyWlLk6GJQsqaUBKTNV-0" />
        <mxCell id="GItkdUXxHumOKDOfEslE-7" style="edgeStyle=orthogonalEdgeStyle;rounded=0;orthogonalLoop=1;jettySize=auto;html=1;entryX=0.5;entryY=0;entryDx=0;entryDy=0;" edge="1" parent="WIyWlLk6GJQsqaUBKTNV-1" source="GItkdUXxHumOKDOfEslE-0" target="GItkdUXxHumOKDOfEslE-1">
          <mxGeometry relative="1" as="geometry" />
        </mxCell>
        <mxCell id="GItkdUXxHumOKDOfEslE-0" value="Studi Literatur" style="rounded=0;whiteSpace=wrap;html=1;" vertex="1" parent="WIyWlLk6GJQsqaUBKTNV-1">
          <mxGeometry x="190" y="110" width="120" height="60" as="geometry" />
        </mxCell>
        <mxCell id="GItkdUXxHumOKDOfEslE-8" style="edgeStyle=orthogonalEdgeStyle;rounded=0;orthogonalLoop=1;jettySize=auto;html=1;entryX=0.5;entryY=0;entryDx=0;entryDy=0;" edge="1" parent="WIyWlLk6GJQsqaUBKTNV-1" source="GItkdUXxHumOKDOfEslE-1" target="GItkdUXxHumOKDOfEslE-6">
          <mxGeometry relative="1" as="geometry" />
        </mxCell>
        <mxCell id="GItkdUXxHumOKDOfEslE-1" value="Pengumpulan Data" style="rounded=0;whiteSpace=wrap;html=1;" vertex="1" parent="WIyWlLk6GJQsqaUBKTNV-1">
          <mxGeometry x="190" y="210" width="120" height="60" as="geometry" />
        </mxCell>
        <mxCell id="GItkdUXxHumOKDOfEslE-13" style="edgeStyle=orthogonalEdgeStyle;rounded=0;orthogonalLoop=1;jettySize=auto;html=1;entryX=0;entryY=0.5;entryDx=0;entryDy=0;" edge="1" parent="WIyWlLk6GJQsqaUBKTNV-1" source="GItkdUXxHumOKDOfEslE-2" target="GItkdUXxHumOKDOfEslE-9">
          <mxGeometry relative="1" as="geometry" />
        </mxCell>
        <mxCell id="GItkdUXxHumOKDOfEslE-2" value="Data Spasial dan &lt;br&gt;Data Atribut Sekolah" style="shape=parallelogram;perimeter=parallelogramPerimeter;whiteSpace=wrap;html=1;fixedSize=1;" vertex="1" parent="WIyWlLk6GJQsqaUBKTNV-1">
          <mxGeometry x="-30" y="480" width="180" height="60" as="geometry" />
        </mxCell>
        <mxCell id="GItkdUXxHumOKDOfEslE-11" style="edgeStyle=orthogonalEdgeStyle;rounded=0;orthogonalLoop=1;jettySize=auto;html=1;entryX=0;entryY=0.5;entryDx=0;entryDy=0;" edge="1" parent="WIyWlLk6GJQsqaUBKTNV-1" source="GItkdUXxHumOKDOfEslE-3" target="GItkdUXxHumOKDOfEslE-9">
          <mxGeometry relative="1" as="geometry" />
        </mxCell>
        <mxCell id="GItkdUXxHumOKDOfEslE-3" value="Data Spasial dan &lt;br&gt;Data Atribut Peserta Didik" style="shape=parallelogram;perimeter=parallelogramPerimeter;whiteSpace=wrap;html=1;fixedSize=1;" vertex="1" parent="WIyWlLk6GJQsqaUBKTNV-1">
          <mxGeometry x="-20" y="300" width="170" height="60" as="geometry" />
        </mxCell>
        <mxCell id="GItkdUXxHumOKDOfEslE-14" style="edgeStyle=orthogonalEdgeStyle;rounded=0;orthogonalLoop=1;jettySize=auto;html=1;entryX=0;entryY=0.5;entryDx=0;entryDy=0;" edge="1" parent="WIyWlLk6GJQsqaUBKTNV-1" source="GItkdUXxHumOKDOfEslE-4" target="GItkdUXxHumOKDOfEslE-9">
          <mxGeometry relative="1" as="geometry" />
        </mxCell>
        <mxCell id="GItkdUXxHumOKDOfEslE-4" value="Data Spasial Jalan&lt;br&gt;dari OSM" style="shape=parallelogram;perimeter=parallelogramPerimeter;whiteSpace=wrap;html=1;fixedSize=1;" vertex="1" parent="WIyWlLk6GJQsqaUBKTNV-1">
          <mxGeometry x="-30" y="570" width="180" height="60" as="geometry" />
        </mxCell>
        <mxCell id="GItkdUXxHumOKDOfEslE-12" style="edgeStyle=orthogonalEdgeStyle;rounded=0;orthogonalLoop=1;jettySize=auto;html=1;" edge="1" parent="WIyWlLk6GJQsqaUBKTNV-1" source="GItkdUXxHumOKDOfEslE-5">
          <mxGeometry relative="1" as="geometry">
            <mxPoint x="190" y="429.9999999999999" as="targetPoint" />
          </mxGeometry>
        </mxCell>
        <mxCell id="GItkdUXxHumOKDOfEslE-5" value="Data Spasial &lt;br&gt;Batas Administrasi" style="shape=parallelogram;perimeter=parallelogramPerimeter;whiteSpace=wrap;html=1;fixedSize=1;" vertex="1" parent="WIyWlLk6GJQsqaUBKTNV-1">
          <mxGeometry x="-30" y="390" width="180" height="60" as="geometry" />
        </mxCell>
        <mxCell id="GItkdUXxHumOKDOfEslE-10" style="edgeStyle=orthogonalEdgeStyle;rounded=0;orthogonalLoop=1;jettySize=auto;html=1;entryX=0.5;entryY=0;entryDx=0;entryDy=0;" edge="1" parent="WIyWlLk6GJQsqaUBKTNV-1" source="GItkdUXxHumOKDOfEslE-6" target="GItkdUXxHumOKDOfEslE-9">
          <mxGeometry relative="1" as="geometry" />
        </mxCell>
        <mxCell id="GItkdUXxHumOKDOfEslE-6" value="Instalasi dan Persiapan Perangkat" style="rounded=0;whiteSpace=wrap;html=1;" vertex="1" parent="WIyWlLk6GJQsqaUBKTNV-1">
          <mxGeometry x="190" y="310" width="120" height="60" as="geometry" />
        </mxCell>
        <mxCell id="GItkdUXxHumOKDOfEslE-9" value="Pembuatan Basis Data" style="rounded=0;whiteSpace=wrap;html=1;" vertex="1" parent="WIyWlLk6GJQsqaUBKTNV-1">
          <mxGeometry x="190" y="400" width="120" height="60" as="geometry" />
        </mxCell>
        <mxCell id="GItkdUXxHumOKDOfEslE-21" style="edgeStyle=orthogonalEdgeStyle;rounded=0;orthogonalLoop=1;jettySize=auto;html=1;entryX=0.5;entryY=0;entryDx=0;entryDy=0;" edge="1" parent="WIyWlLk6GJQsqaUBKTNV-1" source="GItkdUXxHumOKDOfEslE-15" target="GItkdUXxHumOKDOfEslE-18">
          <mxGeometry relative="1" as="geometry" />
        </mxCell>
        <mxCell id="GItkdUXxHumOKDOfEslE-15" value="Basis Data" style="strokeWidth=2;html=1;shape=mxgraph.flowchart.direct_data;whiteSpace=wrap;" vertex="1" parent="WIyWlLk6GJQsqaUBKTNV-1">
          <mxGeometry x="200" y="500" width="100" height="60" as="geometry" />
        </mxCell>
        <mxCell id="GItkdUXxHumOKDOfEslE-16" style="edgeStyle=orthogonalEdgeStyle;rounded=0;orthogonalLoop=1;jettySize=auto;html=1;entryX=0.5;entryY=0;entryDx=0;entryDy=0;entryPerimeter=0;" edge="1" parent="WIyWlLk6GJQsqaUBKTNV-1" source="GItkdUXxHumOKDOfEslE-9" target="GItkdUXxHumOKDOfEslE-15">
          <mxGeometry relative="1" as="geometry" />
        </mxCell>
        <mxCell id="GItkdUXxHumOKDOfEslE-22" style="edgeStyle=orthogonalEdgeStyle;rounded=0;orthogonalLoop=1;jettySize=auto;html=1;entryX=0.5;entryY=0;entryDx=0;entryDy=0;" edge="1" parent="WIyWlLk6GJQsqaUBKTNV-1" source="GItkdUXxHumOKDOfEslE-18" target="GItkdUXxHumOKDOfEslE-19">
          <mxGeometry relative="1" as="geometry" />
        </mxCell>
        <mxCell id="GItkdUXxHumOKDOfEslE-18" value="Pengembangan SIstem" style="rounded=0;whiteSpace=wrap;html=1;" vertex="1" parent="WIyWlLk6GJQsqaUBKTNV-1">
          <mxGeometry x="190" y="600" width="120" height="60" as="geometry" />
        </mxCell>
        <mxCell id="GItkdUXxHumOKDOfEslE-23" style="edgeStyle=orthogonalEdgeStyle;rounded=0;orthogonalLoop=1;jettySize=auto;html=1;" edge="1" parent="WIyWlLk6GJQsqaUBKTNV-1" source="GItkdUXxHumOKDOfEslE-19" target="GItkdUXxHumOKDOfEslE-20">
          <mxGeometry relative="1" as="geometry" />
        </mxCell>
        <mxCell id="GItkdUXxHumOKDOfEslE-19" value="Sistem Aplikasi" style="shape=parallelogram;perimeter=parallelogramPerimeter;whiteSpace=wrap;html=1;fixedSize=1;" vertex="1" parent="WIyWlLk6GJQsqaUBKTNV-1">
          <mxGeometry x="180" y="700" width="140" height="60" as="geometry" />
        </mxCell>
        <mxCell id="GItkdUXxHumOKDOfEslE-25" style="edgeStyle=orthogonalEdgeStyle;rounded=0;orthogonalLoop=1;jettySize=auto;html=1;" edge="1" parent="WIyWlLk6GJQsqaUBKTNV-1" source="GItkdUXxHumOKDOfEslE-20" target="GItkdUXxHumOKDOfEslE-24">
          <mxGeometry relative="1" as="geometry" />
        </mxCell>
        <mxCell id="GItkdUXxHumOKDOfEslE-20" value="Pengujian Sistem" style="rounded=0;whiteSpace=wrap;html=1;" vertex="1" parent="WIyWlLk6GJQsqaUBKTNV-1">
          <mxGeometry x="190" y="790" width="120" height="60" as="geometry" />
        </mxCell>
        <mxCell id="GItkdUXxHumOKDOfEslE-24" value="Dokumen Sekolah Beserta Peserta Didik Sesuai Hasil Perataan Sistem" style="shape=document;whiteSpace=wrap;html=1;boundedLbl=1;" vertex="1" parent="WIyWlLk6GJQsqaUBKTNV-1">
          <mxGeometry x="170" y="890" width="160" height="90" as="geometry" />
        </mxCell>
      </root>
    </mxGraphModel>
  </diagram>
</mxfile>
